<?xml version="1.0" standalone="no"?>
<!DOCTYPE svg PUBLIC "-//W3C//DTD SVG 20010904//EN"
 "http://www.w3.org/TR/2001/REC-SVG-20010904/DTD/svg10.dtd">
<svg version="1.0" xmlns="http://www.w3.org/2000/svg"
 width="256.000000pt" height="256.000000pt" viewBox="0 0 256.000000 256.000000"
 preserveAspectRatio="xMidYMid meet">
<metadata>
Created by potrace 1.11, written by Peter Selinger 2001-2013
</metadata>
<g transform="translate(0.000000,256.000000) scale(0.100000,-0.100000)"
fill="#000000" stroke="none">
<path d="M140 2547 c-48 -15 -113 -83 -128 -133 -8 -27 -12 -118 -12 -268 l0
-226 105 0 105 0 2 213 3 212 213 3 212 2 0 105 0 105 -232 -1 c-140 -1 -247
-5 -268 -12z"/>
<path d="M1920 2455 l0 -105 213 -2 212 -3 3 -212 2 -213 105 0 105 0 0 226
c0 260 -6 290 -65 349 -59 59 -89 65 -349 65 l-226 0 0 -105z"/>
<path d="M430 1810 l0 -320 318 2 317 3 3 318 2 317 -320 0 -320 0 0 -320z
m420 5 l0 -105 -105 0 -105 0 0 105 0 105 105 0 105 0 0 -105z"/>
<path d="M1492 1813 l3 -318 318 -3 317 -2 0 320 0 320 -320 0 -320 0 2 -317z
m428 2 l0 -105 -105 0 -105 0 0 105 0 105 105 0 105 0 0 -105z"/>
<path d="M1172 1708 l3 -213 105 0 105 0 3 213 2 212 -110 0 -110 0 2 -212z"/>
<path d="M430 1280 l0 -110 105 0 105 0 0 110 0 110 -105 0 -105 0 0 -110z"/>
<path d="M960 1280 l0 -110 105 0 105 0 0 -105 0 -105 110 0 110 0 -2 213 -3
212 -212 3 -213 2 0 -110z"/>
<path d="M1494 1377 c-2 -7 -3 -56 -2 -108 l3 -94 108 -3 107 -3 0 -104 0
-105 -110 0 -110 0 0 -55 0 -55 -160 0 -160 0 0 -210 0 -210 110 0 110 0 0
105 0 105 160 0 160 0 0 -105 0 -105 105 0 105 0 0 105 0 105 105 0 105 0 0
160 0 160 -105 0 -105 0 0 105 0 105 105 0 105 0 0 110 0 110 -105 0 -105 0 0
-110 0 -110 -105 0 -104 0 -3 108 -3 107 -103 3 c-79 2 -104 0 -108 -11z m426
-577 l0 -160 -105 0 -105 0 0 160 0 160 105 0 105 0 0 -160z"/>
<path d="M430 750 l0 -320 320 0 320 0 -2 318 -3 317 -317 3 -318 2 0 -320z
m420 -5 l0 -105 -105 0 -105 0 0 105 0 105 105 0 105 0 0 -105z"/>
<path d="M0 414 c0 -260 6 -290 65 -349 59 -59 89 -65 349 -65 l226 0 0 105 0
105 -212 2 -213 3 -3 213 -2 212 -105 0 -105 0 0 -226z"/>
<path d="M2348 428 l-3 -213 -212 -3 -213 -2 0 -105 0 -105 226 0 c260 0 290
6 349 65 59 59 65 89 65 349 l0 226 -105 0 -105 0 -2 -212z"/>
</g>
</svg>
